<svg xmlns="http://www.w3.org/2000/svg" xmlns:xlink="http://www.w3.org/1999/xlink" version="1.1" id="Layer_1" x="0px" y="0px" viewBox="0 0 401.31 80" style="enable-background:new 0 0 401.31 80;" xml:space="preserve">
<style type="text/css">
	.st0{fill:url(#SVGID_1_);}
	.st1{opacity:0.1;fill:#ffffff;}
	.st2{fill:#ffffff;}
	.st3{fill:url(#SVGID_00000002372885791542619880000013310600615005183910_);}
	.st4{fill:url(#SVGID_00000165934623356278772720000011694541916691441343_);}
</style>
<g>
	<path class="st2" d="M394.99,20.77c-1.05-2.9-2.58-5.14-4.61-6.69c-1.23-0.96-2.69-1.64-4.37-2.07c-1.69-0.43-3.98-0.64-6.88-0.64   h-14.72V68.5h11.49V51.01h6.88c4.47,0,7.88-1.69,10.24-5.08c2.36-3.38,3.54-8.28,3.54-14.7C396.56,27.17,396.03,23.68,394.99,20.77   z M384.48,26.7c0.76,0.88,1.14,2.39,1.14,4.53c0,2.17-0.4,3.69-1.19,4.53c-0.79,0.86-2.41,1.29-4.84,1.29h-3.69V25.37h3.69   C382.09,25.37,383.72,25.82,384.48,26.7z" fill="#000000"/>
	<path class="st2" d="M358.74,63.11c0-0.22,0-0.4-0.02-0.49l-0.19-7.95c-0.09-3.88-0.57-6.78-1.45-8.72   c-0.88-1.92-2.34-3.24-4.36-3.97c1.99-1.39,3.45-3.22,4.37-5.51c0.93-2.27,1.39-5.16,1.39-8.65c0-5.84-1.15-10.04-3.43-12.59   c-2.28-2.57-6.11-3.85-11.49-3.85h-17.13V68.5h11.34V48.8h4.89c1.81,0,3.08,0.59,3.8,1.8c0.72,1.2,1.08,3.27,1.08,6.23v5.7   c0,1.13,0.06,2.19,0.17,3.16c0.11,0.97,0.28,1.92,0.51,2.81h11.54v-2.12C359.13,66.27,358.79,65.18,358.74,63.11z M347.83,30.61   c0,1.95-0.34,3.32-1.03,4.12s-1.96,1.2-3.8,1.2h-5.23V25.21h4.94c2.07,0,3.44,0.41,4.11,1.21   C347.5,27.22,347.83,28.61,347.83,30.61z" fill="#000000"/>
	<polygon class="st2" points="303.24,45.77 317.73,45.77 317.73,32.67 303.24,32.67 303.24,25.07 320.37,25.07 320.37,11.37    291.75,11.37 291.75,68.5 321.08,68.5 321.08,54.61 303.24,54.61  " fill="#000000"/>
	<path class="st2" d="M260.48,41.67c-0.6-0.24-1.41-0.53-2.43-0.86c-2.68-0.89-4.01-2.2-4.01-3.91c0-0.96,0.24-1.69,0.72-2.2   c0.49-0.49,1.2-0.75,2.12-0.75c0.92,0,1.69,0.38,2.3,1.13c0.6,0.75,0.95,1.76,1.03,3.02h9.45c-0.32-4.39-1.57-7.71-3.73-9.93   c-2.16-2.22-5.21-3.34-9.15-3.34c-4.24,0-7.47,1.18-9.68,3.54c-2.21,2.38-3.32,5.83-3.32,10.34c0,3.72,0.75,6.58,2.24,8.54   c1.49,1.96,4.39,3.67,8.7,5.11c0.34,0.14,0.8,0.29,1.38,0.48c2.71,0.88,4.06,2.25,4.06,4.15c0,1.15-0.3,2.04-0.89,2.65   c-0.59,0.61-1.44,0.91-2.54,0.91c-1.15,0-2.01-0.43-2.58-1.31c-0.58-0.89-0.87-2.22-0.87-4.01h-10.2c0.22,4.95,1.46,8.64,3.7,11.09   c2.25,2.46,5.51,3.69,9.78,3.69c4.62,0,8.11-1.23,10.46-3.69c2.36-2.46,3.54-6.1,3.54-10.93c0-3.7-0.67-6.53-2.02-8.51   C267.2,44.91,264.51,43.17,260.48,41.67z" fill="#000000"/>
	<path class="st2" d="M235.15,13.3h-10.44v13.04h-3.72V36h3.72v21.13c0,4.49,0.66,7.61,1.98,9.39c1.32,1.79,3.65,2.68,6.98,2.68   c0.96,0,1.97-0.03,3.04-0.1c1.07-0.06,2.21-0.16,3.43-0.29V56.67c-0.2,0.03-0.4,0.05-0.61,0.06c-0.21,0.02-0.52,0.02-0.92,0.02   c-1.32,0-2.22-0.29-2.71-0.88c-0.5-0.57-0.75-1.58-0.75-3V36h4.99v-9.66h-4.99V13.3z" fill="#000000"/>
	<path class="st2" d="M216.35,32.74c-0.73-2.33-1.85-4.17-3.34-5.51c-1.5-1.34-3.19-2.03-5.07-2.03c-2.08,0-3.93,0.73-5.58,2.2   c-1.64,1.45-3.02,3.61-4.12,6.45c0.12-0.56,0.2-1.12,0.26-1.66c0.05-0.54,0.08-1.1,0.08-1.68v-4.18h-9.55V68.5h10.5V46.74   c0-2.87,0.33-5,0.97-6.4c0.65-1.39,1.64-2.09,2.97-2.09c1.31,0,2.23,0.59,2.77,1.79c0.53,1.18,0.8,3.4,0.8,6.62V68.5h10.5V46.58   c0-4.17-0.09-7.17-0.27-9.03C217.09,35.7,216.78,34.09,216.35,32.74z" fill="#000000"/>
	<path class="st2" d="M169.67,24.83c-4.68,0-8.39,2.06-11.11,6.16c-2.72,4.12-4.08,9.7-4.08,16.76c0,6.8,1.33,12.21,4,16.23   c2.66,4.02,6.26,6.03,10.8,6.03c4.05,0,7.31-1.2,9.79-3.58c2.48-2.38,4.08-5.84,4.79-10.42H173.8c-0.25,1.13-0.71,2.01-1.39,2.62   c-0.68,0.61-1.51,0.91-2.5,0.91c-1.52,0-2.71-0.73-3.56-2.19c-0.85-1.47-1.3-3.54-1.35-6.23l19.71-0.05v-1.17   c0-7.81-1.34-13.94-4.02-18.4C178.01,27.06,174.33,24.83,169.67,24.83z M174.4,42.67H165c0.07-2.46,0.5-4.37,1.31-5.76   c0.81-1.39,1.9-2.08,3.26-2.08c1.49,0,2.64,0.65,3.44,1.96C173.81,38.11,174.28,40.06,174.4,42.67z" fill="#000000"/>
	<path class="st2" d="M149.33,32.74c-0.7-2.3-1.8-4.13-3.31-5.49c-1.5-1.36-3.17-2.04-5-2.04c-2.16,0-4.04,0.72-5.64,2.14   c-1.6,1.42-2.9,3.51-3.89,6.29c-0.6-2.71-1.59-4.8-2.99-6.26c-1.39-1.44-3.08-2.17-5.05-2.17c-2.01,0-3.81,0.73-5.4,2.17   c-1.58,1.45-2.94,3.61-4.08,6.48c0.11-0.59,0.2-1.17,0.24-1.72c0.05-0.56,0.08-1.09,0.08-1.61v-4.18h-9.36V68.5h10.31V46.74   c0-2.92,0.31-5.06,0.93-6.43c0.62-1.37,1.6-2.06,2.93-2.06c1.25,0,2.13,0.61,2.66,1.84c0.53,1.23,0.79,3.43,0.79,6.58V68.5h10.3   V46.58c0-2.89,0.3-5.01,0.9-6.34c0.6-1.32,1.54-2,2.82-2c1.3,0,2.21,0.59,2.75,1.79c0.53,1.18,0.8,3.4,0.8,6.62V68.5h10.35V46.58   c0-4.1-0.09-7.09-0.27-8.96C150.02,35.76,149.73,34.13,149.33,32.74z" fill="#000000"/>
	<path class="st2" d="M94.66,27.62c-1.33,1.61-2.39,4.26-3.17,8c0.12-0.94,0.2-1.77,0.26-2.51c0.06-0.73,0.08-1.29,0.08-1.69v-5.08   h-9.59V68.5h10.54V51.2c0-3.26,0.49-5.63,1.47-7.17c0.98-1.53,2.52-2.28,4.61-2.28c0.26,0,0.57,0.02,0.94,0.05   c0.38,0.05,0.81,0.08,1.29,0.14V25.21h-0.95C97.83,25.21,96,26.02,94.66,27.62z" fill="#000000"/>
	<path class="st2" d="M76.4,65.85c-0.19-0.61-0.29-1.31-0.29-2.12v-23.5c0-3.54-0.33-6.24-0.98-8.11c-0.66-1.87-1.76-3.4-3.3-4.61   c-1.02-0.8-2.37-1.45-4.05-1.95c-1.69-0.49-3.47-0.73-5.35-0.73c-4.6,0-8.07,1.2-10.4,3.61s-3.5,5.99-3.5,10.74h10.01   c0.1-1.42,0.44-2.47,1.02-3.16c0.59-0.69,1.42-1.02,2.51-1.02c1.29,0,2.23,0.27,2.81,0.83c0.59,0.56,0.88,1.44,0.88,2.65   c0,2.19-1.7,3.56-5.1,4.15c-0.89,0.16-1.6,0.29-2.12,0.4c-4.5,0.91-7.56,2.36-9.17,4.37c-1.61,2.03-2.42,5.09-2.42,9.19   c0,4.25,0.83,7.55,2.49,9.9c1.66,2.35,4,3.53,7.01,3.53c1.91,0,3.68-0.49,5.31-1.5c1.63-0.99,3.12-2.47,4.49-4.47   c0,0.67,0,1.12,0.01,1.31c0.01,0.21,0.03,0.4,0.06,0.54l0.39,2.6h10.54v-1.2C76.88,66.94,76.6,66.46,76.4,65.85z M57.74,56.13   c0-1.88,1.3-3.35,3.89-4.42c1.73-0.7,3.11-1.37,4.13-2.01v0.77v1.36c0,2.83-0.4,4.88-1.2,6.18c-0.8,1.29-2.06,1.93-3.78,1.93   c-0.96,0-1.7-0.34-2.24-1.01C58.01,58.25,57.74,57.33,57.74,56.13z" fill="#000000"/>
	<path class="st2" d="M26.2,49.43h5.18c-0.26,2.06-0.98,3.73-2.17,5.01c-1.18,1.29-2.61,1.93-4.3,1.93c-2.35,0-4.1-1.29-5.25-3.85   c-1.15-2.55-1.72-6.42-1.72-11.59c0-5.59,0.57-9.8,1.71-12.61c1.14-2.82,2.86-4.23,5.16-4.23c1.45,0,2.66,0.59,3.64,1.79   c0.98,1.18,1.69,2.92,2.12,5.19h10.91c-0.58-6.82-2.3-12.05-5.15-15.71c-2.85-3.64-6.67-5.46-11.47-5.46   c-5.8,0-10.33,2.65-13.6,7.97c-3.28,5.32-4.91,12.69-4.91,22.12c0,9.34,1.47,16.7,4.42,22.06c2.95,5.36,6.98,8.05,12.1,8.05   c2.54,0,4.71-0.56,6.5-1.69c1.79-1.12,3.3-2.86,4.53-5.22l0.61,5.32h7.41V37.2H26.2V49.43z" fill="#000000"/>
</g>
</svg>