<?xml version="1.0" encoding="utf-8"?>
<!-- Generator: Adobe Illustrator 27.0.0, SVG Export Plug-In . SVG Version: 6.00 Build 0)  -->
<svg version="1.1" id="Layer_1" xmlns="http://www.w3.org/2000/svg" xmlns:xlink="http://www.w3.org/1999/xlink" x="0px" y="0px"
	 viewBox="0 0 80 80" style="enable-background:new 0 0 80 80;" xml:space="preserve">
<style type="text/css">
	.st0{opacity:0.1;fill:#FFFFFF;}
	.st1{fill:url(#SVGID_1_);}
	.st2{fill:none;stroke:#FFFFFF;stroke-width:2;stroke-miterlimit:10;}
	.st3{fill:#FFFFFF;}
	.st4{fill:#FFFFFF;stroke:#FFFFFF;stroke-width:2;stroke-miterlimit:10;}
	.st5{fill:url(#SVGID_00000154418708144958555550000014795120115345750161_);}
	.st6{fill:url(#SVGID_00000127023227787733809780000011885889210138119607_);}
	.st7{fill:url(#SVGID_00000096765971372543791360000011291595582026671755_);}
	.st8{fill:url(#SVGID_00000042014863499481742920000009753762770043603335_);}
	.st9{fill:url(#SVGID_00000153692208666201763310000012506765563239395246_);}
</style>
<linearGradient id="SVGID_1_" gradientUnits="userSpaceOnUse" x1="59.6803" y1="74.0872" x2="20.3197" y2="5.9128">
	<stop  offset="0" style="stop-color:#8C29BC"/>
	<stop  offset="1" style="stop-color:#9029BB"/>
</linearGradient>
<circle class="st1" cx="40" cy="40" r="39.35"/>
<g>
	<path class="st3" d="M74.94,30.02c-1.4-1.4-3.27-2.17-5.25-2.17l-9.32,0c-1.48,0-2.68,1.2-2.68,2.68v18.95
		c0,1.48,1.2,2.68,2.68,2.68s2.68-1.2,2.68-2.68v-7c0.31,0.13,0.65,0.2,1.01,0.2h5.63c4.09,0,7.42-3.33,7.42-7.42
		C77.12,33.28,76.34,31.42,74.94,30.02z M63.06,33.21l6.64,0c0.55,0,1.07,0.21,1.46,0.6c0.4,0.39,0.6,0.9,0.6,1.46
		c0,1.14-0.92,2.06-2.06,2.06h-5.63c-0.36,0-0.7,0.07-1.01,0.2V33.21z"/>
	<path class="st3" d="M50.31,35.27c0-1.98-0.77-3.85-2.17-5.24c-1.4-1.4-3.26-2.17-5.25-2.17l-9.31,0c-1.48,0-2.68,1.2-2.68,2.68
		v18.95c0,1.48,1.2,2.68,2.68,2.68c1.48,0,2.68-1.2,2.68-2.68v-7c0.31,0.13,0.65,0.2,1.01,0.2h0.89h0l7.46,8.56
		c0.51,0.58,1.24,0.92,2.02,0.92c0.64,0,1.27-0.23,1.76-0.66c1.11-0.97,1.22-2.67,0.26-3.78l-4.39-5.04h0l-0.27-0.31
		C48.06,41.46,50.31,38.63,50.31,35.27z M36.25,33.21l6.64,0c0.56,0,1.06,0.21,1.46,0.6c0.4,0.39,0.6,0.9,0.6,1.46
		c0,1.14-0.92,2.06-2.06,2.06h-3.48c-0.03,0-0.06,0-0.09,0h-2.06c-0.36,0-0.7,0.07-1.01,0.2V33.21z"/>
	<path class="st3" d="M20.82,46.8H10.24v-4.32c0.31,0.13,0.65,0.2,1.01,0.2h4.96c1.48,0,2.68-1.2,2.68-2.68s-1.2-2.68-2.68-2.68
		h-4.96c-0.36,0-0.7,0.08-1.01,0.21v-4.33l10.58,0c1.48,0,2.68-1.2,2.68-2.68s-1.2-2.68-2.68-2.68l-13.26,0
		c-1.48,0-2.68,1.2-2.68,2.68v18.95c0,1.48,1.2,2.68,2.68,2.68h13.26c1.48,0,2.68-1.2,2.68-2.68S22.3,46.8,20.82,46.8z"/>
</g>
</svg>
